<svg width="100" height="100" viewBox="0 0 100 100" fill="none" xmlns="http://www.w3.org/2000/svg">
<g clip-path="url(#clip0_1_2)">
<circle cx="50" cy="50" r="50" fill="white"/>
<path d="M71.9167 60.4067C71.9167 50.02 60.6433 48.0567 52.0933 46.7267V35.2C56.4633 35.7067 58.87 37.7333 59.3133 41.7233H70.2067C70.08 31.2733 61.72 27.1567 52.0933 26.5233V22.4067H47.1533V26.5233C36.1967 27.0933 28.5333 31.8433 28.5333 40.0133C28.5333 49.5133 38.6667 51.9833 47.1533 53.63V65.6C42.4667 65.1567 38.92 63.1933 38.6033 59.0767H27.4567C27.71 69.0833 35.69 73.8333 47.1533 74.34V78.2667H52.0933V74.34C64.19 73.7067 71.9167 68.83 71.9167 60.4067ZM39.9967 40.2033C39.9967 37.1 43.2267 35.4533 47.1533 35.0733V45.7767C41.8967 44.4467 39.9967 42.4833 39.9967 40.2033ZM52.0933 65.6V54.6433C57.4133 55.91 60.2 57.43 60.2 60.28C60.2 63.51 56.97 65.1567 52.0933 65.6Z" fill="black"/>
</g>
<defs>
<clipPath id="clip0_1_2">
<rect width="100" height="100" fill="white"/>
</clipPath>
</defs>
</svg>
