<svg width="100" height="100" viewBox="0 0 100 100" fill="none" xmlns="http://www.w3.org/2000/svg">
<g clip-path="url(#clip0_502_2)">
<circle cx="50" cy="50" r="50" fill="#3AE200"/>
<path d="M71.9167 60.4067C71.9167 68.83 64.19 73.7067 52.0933 74.34V78.2667H47.1533V74.34C35.69 73.8333 27.71 69.0833 27.4567 59.0767H38.6033C38.92 63.1933 42.4667 65.1567 47.1533 65.6V53.63C38.6667 51.9833 28.5333 49.5133 28.5333 40.0133C28.5333 31.8433 36.1967 27.0933 47.1533 26.5233V22.4067H52.0933V26.5233C61.72 27.1567 70.08 31.2733 70.2067 41.7233H59.3133C58.87 37.7333 56.4633 35.7067 52.0933 35.2V46.7267C60.6433 48.0567 71.9167 50.02 71.9167 60.4067ZM39.9967 40.2033C39.9967 42.4833 41.8967 44.4467 47.1533 45.7767V35.0733C43.2267 35.4533 39.9967 37.1 39.9967 40.2033ZM52.0933 65.6C56.97 65.1567 60.2 63.51 60.2 60.28C60.2 57.43 57.4133 55.91 52.0933 54.6433V65.6Z" fill="black"/>
</g>
<defs>
<clipPath id="clip0_502_2">
<rect width="100" height="100" fill="white"/>
</clipPath>
</defs>
</svg>
