<?xml version="1.0"?><svg xmlns="http://www.w3.org/2000/svg"  viewBox="0 0 30 30" width="30px" height="30px"><style>.a{fill:currentcolor;}</style><path class="a" d="M23,13.75l-0.226-0.475c0-2.21-1.076-2.702-2.209-3.347c-0.001-0.002-0.001-0.004-0.002-0.006 c0.196-0.084,0.457-0.182,0.547-0.644c0.631-0.185,0.721-0.462,0.811-0.738c0.18-0.092,0.631-0.37,0.631-0.923 c0.27-0.185,0.451-0.462,0.361-0.83c0.27-0.37,0.361-0.646,0.27-0.923c0.361-0.462,0.18-0.738,0.09-1.015 c0.27-0.553,0-1.108-0.721-1.015c-0.27-0.462-0.991-0.37-1.082-0.37c-0.09-0.185-0.27-0.277-0.721-0.185 c-0.451-0.277-0.811-0.277-1.172-0.092c-0.451-0.37-0.721-0.092-0.991,0c-0.541-0.185-0.631,0.092-0.901,0.185 c-0.541-0.092-0.721,0.185-0.992,0.462c0,0-0.143-0.034-0.27,0C15.545,4.068,15.19,4.993,15,5.475l0,0 c-0.19-0.482-0.545-1.408-1.422-1.643c-0.127-0.034-0.27,0-0.27,0c-0.27-0.277-0.451-0.554-0.992-0.462 c-0.27-0.091-0.36-0.367-0.901-0.184c-0.27-0.092-0.541-0.37-0.991,0c-0.361-0.184-0.722-0.184-1.172,0.092 C8.8,3.187,8.62,3.279,8.53,3.464c-0.09,0-0.811-0.092-1.082,0.37C6.727,3.741,6.455,4.294,6.727,4.849 c-0.091,0.277-0.271,0.553,0.09,1.015c-0.09,0.277,0,0.553,0.27,0.923c-0.09,0.37,0.09,0.647,0.361,0.83 c0,0.553,0.451,0.83,0.631,0.923c0.09,0.277,0.18,0.553,0.811,0.738C8.98,9.74,9.243,9.837,9.437,9.922 C9.436,9.925,9.436,9.927,9.435,9.929c-1.133,0.644-2.209,1.135-2.209,3.347L7,13.751c-1.418,0.83-2.476,3.825-0.475,5.85 c0.19,0.646,0.26,0.721,0.45,1.276c0.425,2.65,2.402,3.607,2.875,3.699c0.662,0.553,1.11,0.854,2.15,1.224 c0.946,0.923,1.96,1.2,3,1.2s2.054-0.277,3-1.2c1.04-0.37,1.488-0.671,2.15-1.225c0.473-0.092,2.45-1.05,2.875-3.699 c0.19-0.553,0.26-0.629,0.45-1.276C25.475,17.576,24.419,14.582,23,13.75z M21.694,13.599c-0.092,0.9-4.518-2.969-3.78-3.059 C20.034,10.18,21.786,11.35,21.694,13.599z M17.236,11.53c0,0.649-0.911,1.136-2.236,1.141c-1.326-0.006-2.236-0.492-2.236-1.141 c0-0.544,0.686-1.085,1.45-1.33h0.037c0.248-0.084,0.505-0.134,0.749-0.137c0.244,0.002,0.5,0.053,0.75,0.137h0.037 C16.551,10.447,17.236,10.988,17.236,11.53z M16.578,4.936c0,0.164,0.08,0.246,0.08,0.329c0.241-0.246,0.401-0.493,0.642-0.739 c0,0.164-0.08,0.246,0.08,0.41c0.161-0.246,0.32-0.41,0.642-0.575c-0.161,0.246,0,0.329,0.08,0.41 c0.241-0.164,0.401-0.329,0.803-0.493c-0.08,0.164-0.241,0.246-0.08,0.41c0.241-0.164,0.401-0.246,0.962-0.41 c-0.08,0.164-0.32,0.246-0.241,0.41c0.241-0.082,0.562-0.164,0.883-0.246c-0.161,0.164-0.322,0.246-0.161,0.329 c0.322-0.082,0.642-0.246,1.043-0.082l-0.24,0.246c0,0,0.562,0,0.962,0c-0.161,0.246-0.32,0.41-0.401,0.739c0,0,0.241,0,0.401,0 c-0.161,0.493-0.481,0.575-0.562,0.739c0.08,0.082,0.241,0.082,0.481,0c-0.161,0.329-0.401,0.493-0.642,0.739 c0.08,0.082,0.161,0.082,0.401,0c-0.241,0.246-0.481,0.41-0.722,0.658c0.08,0.082,0.241,0.082,0.401,0.082 c-0.241,0.246-0.642,0.41-0.962,0.575c0.08,0.164,0.241,0.082,0.32,0.082c-0.241,0.164-0.642,0.329-0.962,0.41 c0.08,0.082,0.161,0.164,0.32,0.164c-0.401,0.246-0.962,0.082-1.123,0.246c0,0.082,0.161,0.164,0.241,0.246 c-0.642,0-2.311,0.097-2.632-1.218c0.3-0.41,1.182-1.291,2.006-1.798c-1.013,0.281-1.931,0.9-2.419,1.237 C14.897,7.181,15.856,5.593,16.578,4.936z M9.25,8.551c0.08,0,0.241,0.082,0.32-0.082C9.25,8.303,8.849,8.14,8.608,7.893 c0.161,0,0.32,0,0.401-0.082C8.769,7.564,8.528,7.4,8.286,7.154c0.241,0.083,0.322,0.083,0.401,0c-0.24-0.246-0.48-0.41-0.641-0.739 c0.241,0.082,0.401,0.082,0.481,0C8.447,6.25,8.127,6.169,7.966,5.676c0.161,0,0.401,0,0.401,0c-0.08-0.329-0.24-0.493-0.401-0.739 c0.401,0,0.962,0,0.962,0l-0.24-0.247c0.401-0.164,0.722,0,1.043,0.082c0.161-0.082,0-0.164-0.161-0.329 c0.322,0.083,0.642,0.166,0.883,0.247c0.08-0.164-0.161-0.246-0.241-0.41c0.563,0.164,0.722,0.246,0.964,0.41 c0.161-0.164,0-0.246-0.08-0.41c0.401,0.164,0.562,0.329,0.803,0.493c0.08-0.082,0.241-0.164,0.08-0.41 C12.3,4.526,12.46,4.69,12.621,4.936c0.161-0.164,0.08-0.246,0.08-0.41c0.241,0.246,0.401,0.493,0.642,0.739 c0-0.082,0.08-0.164,0.08-0.329c0.722,0.658,1.68,2.245,0.396,2.903c-0.488-0.338-1.406-0.958-2.419-1.238 c0.826,0.506,1.706,1.387,2.006,1.8c-0.322,1.314-1.99,1.218-2.632,1.218c0.08-0.082,0.241-0.164,0.241-0.246 c-0.161-0.164-0.722,0-1.123-0.246c0.161,0,0.241-0.082,0.32-0.164C9.892,8.879,9.491,8.715,9.25,8.551z M12.087,10.54 c0.738,0.09-3.687,3.959-3.78,3.059C8.214,11.35,9.966,10.18,12.087,10.54z M7.33,18.605c-1.004-0.816-1.339-3.103,0.502-4.082 C9.003,14.278,8.25,19.013,7.33,18.605z M11.529,23.129c-0.478,0.385-1.83,0.385-2.864-1.002c-0.716-0.925-0.478-2.39-0.079-2.929 c0.557-0.462,1.512,0.154,2.308,1.079C11.687,21.124,12.086,22.666,11.529,23.129z M10.491,17.798 c-1.025-0.667-1.195-2.167-0.427-3.417c0.769-1.25,2.306-1.667,3.331-1c1.025,0.667,1.282,2.25,0.427,3.417 C13.054,17.964,11.517,18.381,10.491,17.798z M15,25.8c-1.222-0.013-2.213-1.216-2.213-1.556c0-0.514,1.087-0.659,2.147-0.659 c0.02,0,0.044,0.002,0.066,0.004c0.022,0,0.044-0.004,0.066-0.004c1.058,0,2.147,0.145,2.147,0.659 C17.213,24.584,16.222,25.787,15,25.8z M15.069,22.624c-0.023,0-0.046-0.006-0.068-0.006c-0.023,0-0.046,0.006-0.068,0.006 c-1.378,0-2.497-1.008-2.497-2.269c0-1.255,1.111-2.258,2.566-2.267c1.454,0.008,2.566,1.012,2.566,2.267 C17.566,21.615,16.446,22.624,15.069,22.624z M16.179,16.797c-0.854-1.166-0.598-2.75,0.427-3.417c1.025-0.667,2.562-0.25,3.331,1 c0.769,1.25,0.598,2.75-0.427,3.417C18.484,18.381,16.947,17.964,16.179,16.797z M21.337,22.126 c-1.034,1.387-2.388,1.387-2.864,1.002c-0.557-0.462-0.16-2.004,0.637-2.852c0.796-0.925,1.751-1.542,2.308-1.079 C21.815,19.737,22.054,21.201,21.337,22.126z M22.67,18.605c-0.92,0.408-1.674-4.327-0.502-4.082 C24.01,15.502,23.675,17.789,22.67,18.605z"/></svg>