<svg width="100" height="100" viewBox="0 0 100 100" fill="none" xmlns="http://www.w3.org/2000/svg">
<g clip-path="url(#clip0_13_2)">
<path d="M50 100C77.6142 100 100 77.6142 100 50C100 22.3858 77.6142 0 50 0C22.3858 0 0 22.3858 0 50C0 77.6142 22.3858 100 50 100Z" fill="white"/>
<g clip-path="url(#clip1_13_2)">
<path d="M50 77.75C65.3259 77.75 77.75 65.3259 77.75 50C77.75 34.6741 65.3259 22.25 50 22.25C34.6741 22.25 22.25 34.6741 22.25 50C22.25 65.3259 34.6741 77.75 50 77.75Z" stroke="black" stroke-width="6" stroke-linecap="round" stroke-linejoin="round"/>
<path d="M50 34.5833V50L59.25 59.25" stroke="black" stroke-width="6" stroke-linecap="round" stroke-linejoin="round"/>
</g>
</g>
<defs>
<clipPath id="clip0_13_2">
<rect width="100" height="100" fill="white"/>
</clipPath>
<clipPath id="clip1_13_2">
<rect width="74" height="74" fill="white" transform="translate(13 13)"/>
</clipPath>
</defs>
</svg>
