<svg width="44" height="44" viewBox="0 0 44 44" fill="none" xmlns="http://www.w3.org/2000/svg">
<path d="M15.75 7.41666H11.5833C10.4327 7.41666 9.5 8.3494 9.5 9.49999V34.5C9.5 35.6506 10.4327 36.5833 11.5833 36.5833H15.75C16.9006 36.5833 17.8333 35.6506 17.8333 34.5V9.49999C17.8333 8.3494 16.9006 7.41666 15.75 7.41666Z" fill="white"/>
<path d="M32.4167 7.41666H28.25C27.0994 7.41666 26.1667 8.3494 26.1667 9.49999V34.5C26.1667 35.6506 27.0994 36.5833 28.25 36.5833H32.4167C33.5673 36.5833 34.5 35.6506 34.5 34.5V9.49999C34.5 8.3494 33.5673 7.41666 32.4167 7.41666Z" fill="white"/>
</svg>
